# xmcd
#
# Track frame offsets:
#	150
#	27667
#	59902
#	96832
#	124467
#
# Disc length: 1981 seconds
#
# Revision: 1
# Processed by: cddbd v1.5.1PL0 Copyright (c) Steve Scherf et al.
# Submitted via: CDex 1.50Beta5
#
DISCID=4d07bb05
DTITLE=吉田真里子 - May
DYEAR=1900
DGENRE=
TTITLE0=may
TTITLE1=kick the ground mix
TTITLE2=13th mix
TTITLE3=back track
TTITLE4=vocal track for remix (bpm114)
EXTD=
EXTT0=
EXTT1=
EXTT2=
EXTT3=
EXTT4=
PLAYORDER=
